<?xml version="1.0" encoding="utf-8"?>
<!-- Generator: Adobe Illustrator 21.0.0, SVG Export Plug-In . SVG Version: 6.00 Build 0)  -->
<svg version="1.1" id="Layer_4" xmlns="http://www.w3.org/2000/svg" xmlns:xlink="http://www.w3.org/1999/xlink" x="0px" y="0px"
	 viewBox="0 0 75.5 73.5" style="enable-background:new 0 0 75.5 73.5;" xml:space="preserve">
<style type="text/css">
	.st0{fill:#FF912E;}
	.st1{fill:#F16824;}
	.st2{opacity:0.6;fill:#E1E2E0;}
	.st3{fill:#FFFFFF;}
</style>
<path class="st0" d="M74.5,59.4c0,7.3-6.3,13.1-14.1,13.1H14.9c-7.8,0-14.1-5.9-14.1-13.1V14.1C0.8,6.9,7.2,1,14.9,1h45.4
	c7.8,0,14.1,5.9,14.1,13.1V59.4z"/>
<path class="st1" d="M38.7,42.5c-15,0.5-28.6-3.8-37.9-11v27.9c0,7.3,6.3,13.1,14.1,13.1h45.4c7.8,0,14.1-5.9,14.1-13.1v-29
	C65.7,37.4,53,42,38.7,42.5z"/>
<path class="st2" d="M70.1,23.9c-5-9.6-15.7-14.5-31.7-14.5c-18.2,0-33.5,9.3-33.7,23.7c-0.1,5.5,2.8,12.3,6.9,16.1
	c5.1,4.8,13,7.5,22.4,7.5l0.5,0c6,0,12.8-2,12.1-1.8l1.7-0.5l-1.4-5c-4.2,1.4-7.6,1.9-12.3,1.9l-0.4,0c-7.5-0.1-22.3-2.8-22.8-17.5
	C10.7,19.3,26.3,15,38.4,15.7h0.2c8.7,0,19.6,3.1,23.6,9.1c4.1,6.2,3.6,13.4-1.3,17.2c-0.3,0.2-0.6,0.3-1.1,0.3
	c-1.2,0-2.5-0.6-2.8-0.8c-0.3-0.2-0.8-0.5-1.6-0.5c-1.8,0-4.2,1.4-6.6,2.9c-0.3,0.2-0.5,0.3-0.7,0.4c-1,0.6-1.4,1.5-1.1,2.5
	c0.6,1.9,3.9,3.3,7.8,3.3c2.1,0,4.4-0.4,6.6-1.2c2.9-1.1,7.1-4.8,9.3-10C72.1,35.4,73.2,29.9,70.1,23.9z"/>
<g>
	<path class="st3" d="M24,68.8v-7.2h2.3c0.4,0,0.8,0,1.1,0.1c0.3,0.1,0.6,0.2,0.8,0.4s0.4,0.4,0.5,0.6c0.1,0.2,0.1,0.5,0.1,0.8
		c0,0.2,0,0.3-0.1,0.5c-0.1,0.2-0.1,0.3-0.2,0.5c-0.1,0.1-0.3,0.3-0.4,0.4c-0.2,0.1-0.4,0.2-0.6,0.3c0.5,0.1,0.9,0.3,1.2,0.6
		c0.3,0.3,0.4,0.6,0.4,1.1c0,0.3-0.1,0.6-0.2,0.8s-0.3,0.5-0.5,0.6c-0.2,0.2-0.5,0.3-0.8,0.4c-0.3,0.1-0.7,0.1-1.1,0.1H24z M25,64.8
		h1.3c0.3,0,0.5,0,0.7-0.1c0.2-0.1,0.4-0.1,0.5-0.2c0.1-0.1,0.2-0.2,0.3-0.4c0.1-0.2,0.1-0.3,0.1-0.5c0-0.4-0.1-0.7-0.4-0.9
		s-0.6-0.3-1.2-0.3H25V64.8z M25,65.5V68h1.6c0.3,0,0.5,0,0.7-0.1c0.2-0.1,0.4-0.2,0.5-0.3c0.1-0.1,0.2-0.3,0.3-0.4s0.1-0.3,0.1-0.5
		c0-0.4-0.1-0.7-0.4-0.9c-0.3-0.2-0.7-0.3-1.2-0.3H25z"/>
	<path class="st3" d="M36.4,68.8h-0.8c-0.1,0-0.2,0-0.2-0.1c-0.1,0-0.1-0.1-0.1-0.2l-0.7-1.7h-3.2l-0.7,1.7c0,0.1-0.1,0.1-0.1,0.2
		c-0.1,0-0.1,0.1-0.2,0.1h-0.8l2.9-7.2h1L36.4,68.8z M31.7,66.1h2.7l-1.1-2.9c-0.1-0.2-0.1-0.4-0.2-0.7c0,0.1-0.1,0.3-0.1,0.4
		c0,0.1-0.1,0.2-0.1,0.3L31.7,66.1z"/>
	<path class="st3" d="M41,62.8c0,0-0.1,0.1-0.1,0.1c0,0-0.1,0-0.1,0c-0.1,0-0.1,0-0.2-0.1c-0.1-0.1-0.2-0.1-0.3-0.2
		c-0.1-0.1-0.3-0.1-0.4-0.2s-0.4-0.1-0.6-0.1c-0.2,0-0.4,0-0.6,0.1c-0.2,0.1-0.3,0.1-0.4,0.2c-0.1,0.1-0.2,0.2-0.3,0.4
		c-0.1,0.1-0.1,0.3-0.1,0.4c0,0.2,0,0.4,0.1,0.5c0.1,0.1,0.2,0.2,0.4,0.3c0.2,0.1,0.3,0.2,0.5,0.2s0.4,0.1,0.6,0.2
		c0.2,0.1,0.4,0.2,0.6,0.2c0.2,0.1,0.4,0.2,0.5,0.3s0.3,0.3,0.4,0.5c0.1,0.2,0.1,0.5,0.1,0.8c0,0.3-0.1,0.6-0.2,0.9
		c-0.1,0.3-0.3,0.5-0.5,0.7c-0.2,0.2-0.5,0.4-0.8,0.5c-0.3,0.1-0.6,0.2-1,0.2c-0.5,0-0.9-0.1-1.3-0.3c-0.4-0.2-0.7-0.4-1-0.7
		l0.3-0.5c0,0,0.1-0.1,0.1-0.1c0,0,0.1,0,0.1,0c0.1,0,0.1,0,0.2,0.1c0.1,0.1,0.2,0.2,0.3,0.2c0.1,0.1,0.3,0.2,0.5,0.2
		c0.2,0.1,0.4,0.1,0.7,0.1c0.2,0,0.4,0,0.6-0.1c0.2-0.1,0.3-0.2,0.5-0.3c0.1-0.1,0.2-0.3,0.3-0.4c0.1-0.2,0.1-0.3,0.1-0.5
		c0-0.2,0-0.4-0.1-0.5s-0.2-0.3-0.4-0.3c-0.2-0.1-0.3-0.2-0.5-0.2s-0.4-0.1-0.6-0.2s-0.4-0.1-0.6-0.2c-0.2-0.1-0.4-0.2-0.5-0.4
		c-0.2-0.1-0.3-0.3-0.4-0.5c-0.1-0.2-0.1-0.5-0.1-0.8c0-0.3,0-0.5,0.1-0.7c0.1-0.2,0.2-0.4,0.4-0.6c0.2-0.2,0.4-0.3,0.7-0.4
		c0.3-0.1,0.6-0.2,0.9-0.2c0.4,0,0.8,0.1,1.1,0.2c0.3,0.1,0.6,0.3,0.9,0.6L41,62.8z"/>
	<path class="st3" d="M43.7,68.8h-1v-7.2h1V68.8z"/>
	<path class="st3" d="M50.7,67.3c0.1,0,0.1,0,0.1,0.1l0.4,0.4c-0.3,0.3-0.6,0.6-1.1,0.8s-0.9,0.3-1.5,0.3c-0.5,0-1-0.1-1.4-0.3
		s-0.8-0.4-1.1-0.8c-0.3-0.3-0.5-0.7-0.7-1.2c-0.2-0.4-0.2-0.9-0.2-1.5s0.1-1,0.3-1.5c0.2-0.5,0.4-0.8,0.7-1.2
		c0.3-0.3,0.7-0.6,1.1-0.8c0.4-0.2,0.9-0.3,1.5-0.3c0.5,0,1,0.1,1.4,0.2c0.4,0.2,0.7,0.4,1,0.7l-0.3,0.4c0,0-0.1,0.1-0.1,0.1
		c0,0-0.1,0-0.1,0c0,0-0.1,0-0.1,0c0,0-0.1-0.1-0.2-0.1c-0.1,0-0.1-0.1-0.2-0.1c-0.1-0.1-0.2-0.1-0.3-0.2c-0.1,0-0.3-0.1-0.4-0.1
		c-0.2,0-0.4,0-0.6,0c-0.4,0-0.7,0.1-1.1,0.2c-0.3,0.1-0.6,0.3-0.8,0.6s-0.4,0.5-0.5,0.9s-0.2,0.7-0.2,1.2c0,0.4,0.1,0.8,0.2,1.2
		c0.1,0.3,0.3,0.6,0.5,0.9c0.2,0.2,0.5,0.4,0.8,0.6c0.3,0.1,0.6,0.2,1,0.2c0.2,0,0.4,0,0.6,0s0.3-0.1,0.5-0.1
		c0.1-0.1,0.3-0.1,0.4-0.2c0.1-0.1,0.3-0.2,0.4-0.3C50.6,67.3,50.6,67.3,50.7,67.3z"/>
</g>
<g>
	<g>
		<path class="st3" d="M30.6,48c-2.9,0-5.5-1.1-7.6-3.1c-2.1-2.1-3.2-4.6-3.2-7.6l0-33.2h8l-0.4,19.7c1.7-1.1,3.6-1.6,5.7-1.6h15.5
			c2.5,0,4.7,0.9,6.4,2.7s2.7,3.9,2.7,6.4v7.7c0,2.5-0.9,4.7-2.7,6.4c-1.8,1.8-3.9,2.7-6.4,2.7H30.6z M33.1,27.7
			c-1.6,0-2.9,0.5-4,1.7c-1.1,1.1-1.7,2.4-1.7,4v3.4c0,1.6,0.5,2.9,1.7,4c1.1,1.1,2.5,1.7,4,1.7h13c1.1,0,2.1-0.4,2.9-1.2
			c0.8-0.8,1.2-1.7,1.2-2.9v-6.7c0-1.1-0.4-2.1-1.2-2.9c-0.8-0.8-1.7-1.2-2.9-1.2H33.1z"/>
		<path class="st1" d="M27.3,4.5l-0.4,20.2c1.8-1.4,3.9-2.1,6.2-2.1h15.5c2.4,0,4.4,0.8,6.1,2.5c1.7,1.7,2.5,3.7,2.5,6.1v7.7
			c0,2.4-0.8,4.4-2.5,6.1c-1.7,1.7-3.7,2.5-6.1,2.5H30.6c-2.8,0-5.2-1-7.2-3c-2-2-3-4.4-3-7.2l0-32.7H27.3 M33.1,42.9h13
			c1.3,0,2.3-0.5,3.2-1.4c0.9-0.9,1.4-2,1.4-3.2v-6.7c0-1.3-0.5-2.3-1.4-3.2c-0.9-0.9-2-1.3-3.2-1.3h-13c-1.7,0-3.2,0.6-4.4,1.8
			c-1.2,1.2-1.8,2.7-1.8,4.4v3.4c0,1.7,0.6,3.2,1.8,4.4C30,42.3,31.4,42.9,33.1,42.9 M28.3,3.5h-1h-7h-1l0,1l0,32.7
			c0,3.1,1.1,5.8,3.3,7.9c2.2,2.2,4.9,3.3,7.9,3.3h18.1c2.6,0,4.9-0.9,6.8-2.8c1.9-1.8,2.8-4.1,2.8-6.8v-7.7c0-2.6-0.9-4.9-2.8-6.8
			c-1.9-1.9-4.2-2.8-6.8-2.8H33.1c-1.8,0-3.6,0.4-5.2,1.2l0.3-18.3L28.3,3.5L28.3,3.5z M33.1,41.9c-1.4,0-2.6-0.5-3.7-1.5
			c-1-1-1.5-2.2-1.5-3.7v-3.4c0-1.4,0.5-2.6,1.5-3.6c1-1,2.2-1.5,3.7-1.5h13c1,0,1.8,0.3,2.5,1c0.7,0.7,1.1,1.5,1.1,2.5v6.7
			c0,1-0.3,1.8-1.1,2.5c-0.7,0.7-1.5,1.1-2.5,1.1H33.1L33.1,41.9z"/>
	</g>
</g>
</svg>
