<?xml version="1.0" encoding="utf-8"?>
<!-- Generator: Adobe Illustrator 21.0.0, SVG Export Plug-In . SVG Version: 6.00 Build 0)  -->
<svg version="1.1" id="Layer_3" xmlns="http://www.w3.org/2000/svg" xmlns:xlink="http://www.w3.org/1999/xlink" x="0px" y="0px"
	 viewBox="0 0 75.5 73.5" style="enable-background:new 0 0 75.5 73.5;" xml:space="preserve">
<style type="text/css">
	.st0{fill:#6BC96E;}
	.st1{fill:#3AB14A;}
	.st2{opacity:0.6;fill:#E1E2E0;}
	.st3{fill:#FFFFFF;stroke:#39B24A;stroke-width:1.0568;stroke-miterlimit:10;}
	.st4{fill:#FFFFFF;}
</style>
<path class="st0" d="M74.6,59.4c0,7.3-6.3,13.1-14.1,13.1H15c-7.8,0-14.1-5.9-14.1-13.1V14.1C0.9,6.8,7.2,1,15,1h45.4
	c7.8,0,14.1,5.9,14.1,13.1V59.4z"/>
<path class="st1" d="M38.8,42.5c-15,0.5-28.6-3.8-37.9-11v27.9c0,7.3,6.3,13.1,14.1,13.1h45.4c7.8,0,14.1-5.9,14.1-13.1v-29
	C65.8,37.4,53.1,42,38.8,42.5z"/>
<path class="st2" d="M70.2,23.9c-5-9.6-15.7-14.5-31.7-14.5C20.3,9.4,5,18.7,4.8,33.1c-0.1,5.5,2.8,12.3,6.9,16.1
	c5.1,4.8,13,7.5,22.4,7.5l0.5,0c6,0,12.8-2,12.1-1.8l1.7-0.5l-1.4-5c-4.2,1.4-7.6,1.9-12.3,1.9l-0.4,0c-7.5-0.1-22.3-2.8-22.8-17.5
	c-0.5-14.6,15.1-18.9,27.2-18.2h0.2c8.7,0,19.6,3.1,23.6,9.1c4.1,6.2,3.6,13.4-1.3,17.2c-0.3,0.2-0.6,0.3-1.1,0.3
	c-1.2,0-8.6,0-11,1.5c-0.3,0.2-0.5,0.3-0.7,0.4c-1,0.6-1.4,1.5-1.1,2.5c0.6,1.9,3.9,3.3,7.8,3.3c2.1,0,4.4-0.4,6.6-1.2
	c2.9-1.1,7.1-4.8,9.3-10C72.2,35.4,73.3,29.9,70.2,23.9z"/>
<g>
	<path class="st3" d="M46.1,17.7c3.1,0,8.2,2,10.5,4.4c2.1,2.2,4.8,11.9-3.4,12.7c-2.8,0.2-29.3,0.3-29.3,0.3v2c0,1.6,0.5,2.9,1.5,4
		c1,1.1,2.2,1.7,3.5,1.7h28.4v5.6H26.2c-2.6,0-4.9-1-6.7-3.1c-1.8-2.1-2.8-4.5-2.8-7.5v-9.5c0-2.9,0.9-5.4,2.8-7.5
		c1.9-2.1,4.1-3.1,6.7-3.1H46.1z M52.9,29.3c0-5.5-5.2-6-6.9-6l-15,0.1c-1.4,0-7.2-0.5-7.2,4.6l0,1.3L52.9,29.3z"/>
</g>
<g>
	<path class="st4" d="M14.5,61.6v0.8h-3.4v2.4h2.8v0.8h-2.8V68h3.4v0.8h-4.4v-7.2H14.5z"/>
	<path class="st4" d="M16.6,61.6c0,0,0.1,0.1,0.1,0.1l4.2,5.4c0-0.1,0-0.2,0-0.3s0-0.2,0-0.2v-5.1h0.8v7.2h-0.5c-0.1,0-0.1,0-0.2,0
		c-0.1,0-0.1-0.1-0.2-0.1l-4.1-5.4c0,0.1,0,0.2,0,0.2c0,0.1,0,0.2,0,0.2v5.1h-0.9v-7.2h0.5C16.5,61.6,16.6,61.6,16.6,61.6z"/>
	<path class="st4" d="M28.3,61.6v0.8H26v6.4h-1v-6.4h-2.3v-0.8H28.3z"/>
	<path class="st4" d="M33.8,61.6v0.8h-3.4v2.4h2.8v0.8h-2.8V68h3.4v0.8h-4.4v-7.2H33.8z"/>
	<path class="st4" d="M36.2,65.8v3h-1v-7.2h2c0.5,0,0.8,0,1.2,0.1s0.6,0.2,0.8,0.4s0.4,0.4,0.5,0.6c0.1,0.2,0.2,0.5,0.2,0.8
		c0,0.3,0,0.5-0.1,0.7c-0.1,0.2-0.2,0.4-0.3,0.6c-0.2,0.2-0.3,0.3-0.6,0.4c-0.2,0.1-0.5,0.2-0.7,0.3c0.1,0.1,0.2,0.2,0.3,0.3
		l2.1,2.8h-0.9c-0.2,0-0.3-0.1-0.4-0.2L37.5,66c-0.1-0.1-0.1-0.1-0.2-0.2s-0.2-0.1-0.3-0.1H36.2z M36.2,65.1h1c0.3,0,0.5,0,0.7-0.1
		c0.2-0.1,0.4-0.2,0.5-0.3c0.1-0.1,0.3-0.3,0.3-0.4s0.1-0.4,0.1-0.6c0-0.4-0.1-0.7-0.4-1c-0.3-0.2-0.7-0.3-1.3-0.3h-1.1V65.1z"/>
	<path class="st4" d="M42.7,66.1v2.7h-1v-7.2h2.1c0.5,0,0.8,0.1,1.2,0.2s0.6,0.3,0.8,0.4c0.2,0.2,0.4,0.4,0.5,0.7
		c0.1,0.3,0.2,0.6,0.2,0.9c0,0.3-0.1,0.6-0.2,0.9c-0.1,0.3-0.3,0.5-0.5,0.7c-0.2,0.2-0.5,0.4-0.8,0.5c-0.3,0.1-0.7,0.2-1.1,0.2H42.7
		z M42.7,65.3h1.2c0.3,0,0.5,0,0.7-0.1c0.2-0.1,0.4-0.2,0.5-0.3c0.1-0.1,0.3-0.3,0.3-0.5c0.1-0.2,0.1-0.4,0.1-0.6
		c0-0.5-0.1-0.8-0.4-1.1c-0.3-0.3-0.7-0.4-1.3-0.4h-1.2V65.3z"/>
	<path class="st4" d="M48.8,65.8v3h-1v-7.2h2c0.5,0,0.8,0,1.2,0.1s0.6,0.2,0.8,0.4c0.2,0.2,0.4,0.4,0.5,0.6s0.2,0.5,0.2,0.8
		c0,0.3,0,0.5-0.1,0.7c-0.1,0.2-0.2,0.4-0.3,0.6c-0.2,0.2-0.3,0.3-0.6,0.4c-0.2,0.1-0.5,0.2-0.7,0.3c0.1,0.1,0.2,0.2,0.3,0.3
		l2.1,2.8h-0.9c-0.2,0-0.3-0.1-0.4-0.2L50,66c-0.1-0.1-0.1-0.1-0.2-0.2c-0.1,0-0.2-0.1-0.3-0.1H48.8z M48.8,65.1h1
		c0.3,0,0.5,0,0.7-0.1s0.4-0.2,0.5-0.3c0.1-0.1,0.3-0.3,0.3-0.4s0.1-0.4,0.1-0.6c0-0.4-0.1-0.7-0.4-1c-0.3-0.2-0.7-0.3-1.3-0.3h-1.1
		V65.1z"/>
	<path class="st4" d="M55.3,68.8h-1v-7.2h1V68.8z"/>
	<path class="st4" d="M60.9,62.7c0,0-0.1,0.1-0.1,0.1c0,0-0.1,0-0.1,0c-0.1,0-0.1,0-0.2-0.1c-0.1-0.1-0.2-0.1-0.3-0.2
		s-0.3-0.1-0.4-0.2s-0.4-0.1-0.6-0.1c-0.2,0-0.4,0-0.6,0.1c-0.2,0.1-0.3,0.1-0.4,0.2C58.1,62.8,58,62.9,58,63
		c-0.1,0.1-0.1,0.3-0.1,0.4c0,0.2,0,0.4,0.1,0.5c0.1,0.1,0.2,0.2,0.4,0.3c0.2,0.1,0.3,0.2,0.5,0.2s0.4,0.1,0.6,0.2
		c0.2,0.1,0.4,0.2,0.6,0.2c0.2,0.1,0.4,0.2,0.5,0.3c0.2,0.1,0.3,0.3,0.4,0.5c0.1,0.2,0.1,0.5,0.1,0.8c0,0.3-0.1,0.6-0.2,0.9
		s-0.3,0.5-0.5,0.7c-0.2,0.2-0.5,0.4-0.8,0.5c-0.3,0.1-0.6,0.2-1,0.2c-0.5,0-0.9-0.1-1.3-0.3c-0.4-0.2-0.7-0.4-1-0.7l0.3-0.5
		c0,0,0.1-0.1,0.1-0.1c0,0,0.1,0,0.1,0c0.1,0,0.1,0,0.2,0.1c0.1,0.1,0.2,0.2,0.3,0.2c0.1,0.1,0.3,0.2,0.5,0.2
		c0.2,0.1,0.4,0.1,0.7,0.1c0.2,0,0.4,0,0.6-0.1c0.2-0.1,0.3-0.2,0.5-0.3c0.1-0.1,0.2-0.3,0.3-0.4c0.1-0.2,0.1-0.3,0.1-0.5
		c0-0.2,0-0.4-0.1-0.5s-0.2-0.3-0.4-0.3c-0.2-0.1-0.3-0.2-0.5-0.2s-0.4-0.1-0.6-0.2s-0.4-0.1-0.6-0.2c-0.2-0.1-0.4-0.2-0.5-0.4
		c-0.2-0.1-0.3-0.3-0.4-0.5S57,63.8,57,63.5c0-0.3,0-0.5,0.1-0.7c0.1-0.2,0.2-0.4,0.4-0.6c0.2-0.2,0.4-0.3,0.7-0.4s0.6-0.2,0.9-0.2
		c0.4,0,0.8,0.1,1.1,0.2c0.3,0.1,0.6,0.3,0.9,0.6L60.9,62.7z"/>
	<path class="st4" d="M67,61.6v0.8h-3.4v2.4h2.8v0.8h-2.8V68H67v0.8h-4.4v-7.2H67z"/>
</g>
</svg>
