<?xml version="1.0" encoding="utf-8"?>
<!-- Generator: Adobe Illustrator 21.0.0, SVG Export Plug-In . SVG Version: 6.00 Build 0)  -->
<svg version="1.1" id="Layer_2" xmlns="http://www.w3.org/2000/svg" xmlns:xlink="http://www.w3.org/1999/xlink" x="0px" y="0px"
	 viewBox="0 0 75.5 73.5" style="enable-background:new 0 0 75.5 73.5;" xml:space="preserve">
<style type="text/css">
	.st0{fill:#318FFF;}
	.st1{fill:#3E59A7;}
	.st2{opacity:0.6;fill:#E1E2E0;}
	.st3{fill:#FFFFFF;}
</style>
<g>
	<path class="st0" d="M74.6,59.4c0,7.3-6.3,13.1-14.1,13.1H15.1C7.3,72.5,1,66.6,1,59.4V14.1C1,6.8,7.3,1,15.1,1h45.4
		c7.8,0,14.1,5.9,14.1,13.1V59.4z"/>
	<path class="st1" d="M38.8,42.5c-15,0.5-28.6-3.8-37.9-11v27.9c0,7.3,6.3,13.1,14.1,13.1h45.4c7.8,0,14.1-5.9,14.1-13.1v-29
		C65.8,37.4,53.1,42,38.8,42.5z"/>
	<path class="st2" d="M70.2,23.9c-5-9.6-15.7-14.5-31.7-14.5c-18.2,0-33.5,9.3-33.7,23.7c-0.1,5.5,2.8,12.3,6.9,16.1
		c5.1,4.8,13,7.5,22.4,7.5l0.5,0c6,0,12.8-2,12.1-1.8l1.7-0.5l-1.4-5c-4.2,1.4-7.6,1.9-12.3,1.9l-0.4,0c-7.5-0.1-22.3-2.8-22.8-17.5
		c-0.5-14.6,15.1-18.9,27.2-18.2h0.2c8.7,0,19.6,3.1,23.6,9.1c4.1,6.2,3.6,13.4-1.3,17.2c-0.3,0.2-0.6,0.3-1.1,0.3
		c-1.2,0-2.5-0.6-2.8-0.8c-0.3-0.2-0.8-0.5-1.6-0.5c-1.8,0-4.2,1.4-6.6,2.9c-0.3,0.2-0.5,0.3-0.7,0.4c-1,0.6-1.4,1.5-1.1,2.5
		c0.6,1.9,3.9,3.3,7.8,3.3c2.1,0,4.4-0.4,6.6-1.2c2.9-1.1,7.1-4.8,9.3-10C72.2,35.4,73.4,29.9,70.2,23.9z"/>
	<g>
		<path class="st3" d="M32.8,66.1v2.7h-1v-7.2h2.1c0.5,0,0.8,0.1,1.2,0.2s0.6,0.3,0.8,0.4c0.2,0.2,0.4,0.4,0.5,0.7s0.2,0.6,0.2,0.9
			c0,0.3-0.1,0.6-0.2,0.9c-0.1,0.3-0.3,0.5-0.5,0.7c-0.2,0.2-0.5,0.4-0.8,0.5c-0.3,0.1-0.7,0.2-1.1,0.2H32.8z M32.8,65.3h1.1
			c0.3,0,0.5,0,0.7-0.1c0.2-0.1,0.4-0.2,0.5-0.3c0.1-0.1,0.3-0.3,0.3-0.5c0.1-0.2,0.1-0.4,0.1-0.6c0-0.5-0.1-0.8-0.4-1.1
			c-0.3-0.3-0.7-0.4-1.3-0.4h-1.1V65.3z"/>
		<path class="st3" d="M38.8,68h3.1v0.8h-4.1v-7.2h1V68z"/>
		<path class="st3" d="M45.8,68c0.3,0,0.6,0,0.8-0.1s0.4-0.2,0.6-0.4c0.2-0.2,0.3-0.4,0.4-0.6s0.1-0.5,0.1-0.8v-4.4h1V66
			c0,0.4-0.1,0.8-0.2,1.1c-0.1,0.4-0.3,0.7-0.6,0.9c-0.2,0.3-0.5,0.5-0.9,0.6c-0.4,0.1-0.8,0.2-1.2,0.2s-0.8-0.1-1.2-0.2
			c-0.4-0.1-0.7-0.3-0.9-0.6c-0.2-0.3-0.4-0.6-0.6-0.9c-0.1-0.4-0.2-0.7-0.2-1.1v-4.4h1V66c0,0.3,0,0.6,0.1,0.8s0.2,0.5,0.4,0.6
			c0.2,0.2,0.4,0.3,0.6,0.4C45.2,67.9,45.5,68,45.8,68z"/>
		<path class="st3" d="M53.9,62.7c0,0-0.1,0.1-0.1,0.1s-0.1,0-0.1,0c-0.1,0-0.1,0-0.2-0.1c-0.1-0.1-0.2-0.1-0.3-0.2
			c-0.1-0.1-0.3-0.1-0.4-0.2c-0.2-0.1-0.4-0.1-0.6-0.1c-0.2,0-0.4,0-0.6,0.1c-0.2,0.1-0.3,0.1-0.4,0.2C51.1,62.8,51,62.9,51,63
			c-0.1,0.1-0.1,0.3-0.1,0.4c0,0.2,0,0.4,0.1,0.5c0.1,0.1,0.2,0.2,0.4,0.3c0.2,0.1,0.3,0.2,0.5,0.2s0.4,0.1,0.6,0.2
			c0.2,0.1,0.4,0.2,0.6,0.2c0.2,0.1,0.4,0.2,0.5,0.3c0.2,0.1,0.3,0.3,0.4,0.5c0.1,0.2,0.1,0.5,0.1,0.8c0,0.3-0.1,0.6-0.2,0.9
			s-0.3,0.5-0.5,0.7c-0.2,0.2-0.5,0.4-0.8,0.5c-0.3,0.1-0.6,0.2-1,0.2c-0.5,0-0.9-0.1-1.3-0.3s-0.7-0.4-1-0.7l0.3-0.5
			c0,0,0.1-0.1,0.1-0.1c0,0,0.1,0,0.1,0c0.1,0,0.2,0,0.2,0.1s0.2,0.2,0.3,0.2c0.1,0.1,0.3,0.2,0.5,0.2C51.5,68,51.7,68,52,68
			c0.2,0,0.4,0,0.6-0.1c0.2-0.1,0.3-0.2,0.5-0.3c0.1-0.1,0.2-0.3,0.3-0.4c0.1-0.2,0.1-0.3,0.1-0.5c0-0.2,0-0.4-0.1-0.5
			c-0.1-0.1-0.2-0.3-0.4-0.3s-0.3-0.2-0.5-0.2s-0.4-0.1-0.6-0.2s-0.4-0.1-0.6-0.2c-0.2-0.1-0.4-0.2-0.5-0.4
			c-0.2-0.1-0.3-0.3-0.4-0.5C50,64.1,50,63.8,50,63.5c0-0.3,0-0.5,0.1-0.7c0.1-0.2,0.2-0.4,0.4-0.6c0.2-0.2,0.4-0.3,0.7-0.4
			c0.3-0.1,0.6-0.2,0.9-0.2c0.4,0,0.8,0.1,1.1,0.2c0.3,0.1,0.6,0.3,0.9,0.6L53.9,62.7z"/>
	</g>
	<g>
		<g>
			<path class="st3" d="M19.6,66.8l0-33.2c0-2.9,1.1-5.5,3.2-7.6c2.1-2.1,4.6-3.1,7.6-3.1h18.1c2.5,0,4.7,0.9,6.4,2.7
				c1.8,1.8,2.7,3.9,2.7,6.4v7.7c0,2.5-0.9,4.6-2.7,6.4s-3.9,2.7-6.4,2.7H32.9c-2.1,0-4-0.5-5.7-1.6l0.4,19.7H19.6z M32.9,28.4
				c-1.6,0-2.9,0.6-4,1.7c-1.1,1.1-1.7,2.4-1.7,4v3.4c0,1.6,0.5,2.9,1.7,4c1.1,1.1,2.5,1.7,4,1.7h13c1.1,0,2.1-0.4,2.9-1.2
				c0.8-0.8,1.2-1.7,1.2-2.9v-6.7c0-1.1-0.4-2.1-1.2-2.9c-0.8-0.8-1.7-1.2-2.9-1.2H32.9z"/>
			<path class="st1" d="M48.4,23.4c2.4,0,4.4,0.8,6.1,2.5c1.7,1.7,2.5,3.7,2.5,6.1v7.7c0,2.4-0.8,4.4-2.5,6.1
				c-1.7,1.7-3.7,2.5-6.1,2.5H32.9c-2.3,0-4.4-0.7-6.2-2.1L27,66.3h-7l0-32.7c0-2.8,1-5.2,3-7.2c2-2,4.4-3,7.2-3H48.4 M32.9,43.6h13
				c1.3,0,2.3-0.4,3.2-1.3c0.9-0.9,1.4-2,1.4-3.2v-6.7c0-1.3-0.5-2.3-1.4-3.2c-0.9-0.9-2-1.4-3.2-1.4h-13c-1.7,0-3.2,0.6-4.4,1.8
				c-1.2,1.2-1.8,2.7-1.8,4.4v3.4c0,1.7,0.6,3.1,1.8,4.4C29.7,43,31.2,43.6,32.9,43.6 M48.4,22.4H30.3c-3.1,0-5.8,1.1-7.9,3.3
				c-2.2,2.2-3.3,4.9-3.3,7.9l0,32.7l0,1h1h7h1l0-1L27.7,48c1.6,0.8,3.3,1.2,5.2,1.2h15.5c2.6,0,4.9-0.9,6.8-2.8
				c1.9-1.9,2.8-4.1,2.8-6.8v-7.7c0-2.6-0.9-4.9-2.8-6.8C53.3,23.3,51,22.4,48.4,22.4L48.4,22.4z M32.9,42.6c-1.4,0-2.6-0.5-3.7-1.5
				c-1-1-1.5-2.2-1.5-3.6v-3.4c0-1.4,0.5-2.6,1.5-3.7c1-1,2.2-1.5,3.7-1.5h13c1,0,1.8,0.3,2.5,1.1c0.7,0.7,1.1,1.5,1.1,2.5v6.7
				c0,1-0.3,1.8-1.1,2.5c-0.7,0.7-1.5,1-2.5,1H32.9L32.9,42.6z"/>
		</g>
	</g>
</g>
</svg>
