<?xml version="1.0" encoding="utf-8"?>
<!-- Generator: Adobe Illustrator 16.0.0, SVG Export Plug-In . SVG Version: 6.00 Build 0)  -->
<!DOCTYPE svg PUBLIC "-//W3C//DTD SVG 1.1//EN" "http://www.w3.org/Graphics/SVG/1.1/DTD/svg11.dtd">
<svg version="1.1" id="Layer_1" xmlns="http://www.w3.org/2000/svg" xmlns:xlink="http://www.w3.org/1999/xlink" x="0px" y="0px"
	 width="684px" height="547px" viewBox="0 0 684 547" enable-background="new 0 0 684 547" xml:space="preserve">
<g>
	<g>
		<g>
			<rect x="88.51" y="170.912" fill="#401D73" width="497.703" height="311.382"/>
			<g>
				<path fill="#FFFFFF" d="M191.079,206.568H129.29c-1.669,0-3.021-1.352-3.021-3.021c0-1.668,1.352-3.021,3.021-3.021h61.789
					c1.668,0,3.021,1.352,3.021,3.021S192.748,206.568,191.079,206.568z"/>
				<path fill="#00A3FB" d="M149.887,221.341h-20.596c-1.669,0-3.021-1.353-3.021-3.021c0-1.669,1.352-3.021,3.021-3.021h20.596
					c1.668,0,3.021,1.352,3.021,3.021C152.907,219.989,151.555,221.341,149.887,221.341z"/>
				<path fill="#00A3FB" d="M170.483,309.979h-20.596c-1.669,0-3.021-1.354-3.021-3.021c0-1.668,1.352-3.022,3.021-3.022h20.596
					c1.668,0,3.021,1.354,3.021,3.022C173.503,308.625,172.151,309.979,170.483,309.979z"/>
				<path fill="#00A3FB" d="M211.675,398.616h-20.596c-1.669,0-3.021-1.354-3.021-3.022s1.352-3.021,3.021-3.021h20.596
					c1.668,0,3.021,1.354,3.021,3.021S213.344,398.616,211.675,398.616z"/>
				<path fill="#00A3FB" d="M170.483,236.114h-20.596c-1.669,0-3.021-1.353-3.021-3.021c0-1.668,1.352-3.021,3.021-3.021h20.596
					c1.668,0,3.021,1.352,3.021,3.021C173.503,234.762,172.151,236.114,170.483,236.114z"/>
				<path fill="#00A3FB" d="M170.483,295.207h-20.596c-1.669,0-3.021-1.354-3.021-3.021s1.352-3.021,3.021-3.021h20.596
					c1.668,0,3.021,1.354,3.021,3.021C173.503,293.854,172.151,295.207,170.483,295.207z"/>
				<g>
					<path fill="#00A3FB" d="M229.698,250.889h-59.215c-1.669,0-3.021-1.354-3.021-3.021c0-1.668,1.352-3.022,3.021-3.022h59.215
						c1.668,0,3.021,1.354,3.021,3.022C232.719,249.534,231.366,250.889,229.698,250.889z"/>
					<path fill="#00FB60" d="M264.711,250.889h-20.596c-1.669,0-3.021-1.354-3.021-3.021c0-1.668,1.352-3.022,3.021-3.022h20.596
						c1.668,0,3.021,1.354,3.021,3.022C267.732,249.534,266.379,250.889,264.711,250.889z"/>
					<path fill="#FB9F00" d="M299.725,250.889h-20.596c-1.669,0-3.021-1.354-3.021-3.021c0-1.668,1.352-3.022,3.021-3.022h20.596
						c1.668,0,3.021,1.354,3.021,3.022C302.746,249.534,301.394,250.889,299.725,250.889z"/>
					<path fill="#00A3FB" d="M191.079,265.661h-20.596c-1.669,0-3.021-1.354-3.021-3.021c0-1.668,1.352-3.022,3.021-3.022h20.596
						c1.668,0,3.021,1.354,3.021,3.022C194.1,264.307,192.748,265.661,191.079,265.661z"/>
					<path fill="#00A3FB" d="M191.079,280.434h-20.596c-1.669,0-3.021-1.354-3.021-3.021s1.352-3.021,3.021-3.021h20.596
						c1.668,0,3.021,1.354,3.021,3.021S192.748,280.434,191.079,280.434z"/>
					<path fill="#00A3FB" d="M285.823,280.434h-20.596c-1.669,0-3.021-1.354-3.021-3.021s1.352-3.021,3.021-3.021h20.596
						c1.668,0,3.021,1.354,3.021,3.021S287.491,280.434,285.823,280.434z"/>
					<path fill="#FFFFFF" d="M250.809,280.434h-45.312c-1.669,0-3.021-1.354-3.021-3.021s1.352-3.021,3.021-3.021h45.312
						c1.668,0,3.021,1.354,3.021,3.021S252.477,280.434,250.809,280.434z"/>
					<path fill="#00FB60" d="M226.093,265.661h-20.596c-1.669,0-3.021-1.354-3.021-3.021c0-1.668,1.352-3.022,3.021-3.022h20.596
						c1.668,0,3.021,1.354,3.021,3.022C229.114,264.307,227.762,265.661,226.093,265.661z"/>
					<path fill="#FB9F00" d="M322.381,265.661H240.51c-1.668,0-3.021-1.354-3.021-3.021c0-1.668,1.353-3.022,3.021-3.022h81.871
						c1.668,0,3.021,1.354,3.021,3.022C325.402,264.307,324.05,265.661,322.381,265.661z"/>
				</g>
				<g>
					<path fill="#00A3FB" d="M226.093,339.525h-55.61c-1.669,0-3.021-1.354-3.021-3.022s1.352-3.021,3.021-3.021h55.61
						c1.668,0,3.021,1.354,3.021,3.021S227.762,339.525,226.093,339.525z"/>
					<path fill="#00FB60" d="M261.107,339.525h-20.596c-1.668,0-3.021-1.354-3.021-3.022s1.353-3.021,3.021-3.021h20.596
						c1.669,0,3.021,1.354,3.021,3.021S262.776,339.525,261.107,339.525z"/>
					<path fill="#FB9F00" d="M296.12,339.525h-20.596c-1.668,0-3.021-1.354-3.021-3.022s1.353-3.021,3.021-3.021h20.596
						c1.669,0,3.021,1.354,3.021,3.021S297.789,339.525,296.12,339.525z"/>
				</g>
				<path fill="#00A3FB" d="M213.993,324.752h-43.51c-1.669,0-3.021-1.354-3.021-3.021s1.352-3.022,3.021-3.022h43.51
					c1.668,0,3.021,1.354,3.021,3.022S215.662,324.752,213.993,324.752z"/>
				<path fill="#00A3FB" d="M315.43,324.752h-20.596c-1.669,0-3.021-1.354-3.021-3.021s1.352-3.022,3.021-3.022h20.596
					c1.668,0,3.021,1.354,3.021,3.022S317.098,324.752,315.43,324.752z"/>
				<path fill="#FFFFFF" d="M280.416,324.752H228.41c-1.669,0-3.021-1.354-3.021-3.021s1.352-3.022,3.021-3.022h52.005
					c1.668,0,3.021,1.354,3.021,3.022S282.084,324.752,280.416,324.752z"/>
				<g>
					<path fill="#00A3FB" d="M191.079,354.298h-20.596c-1.669,0-3.021-1.354-3.021-3.021c0-1.667,1.352-3.021,3.021-3.021h20.596
						c1.668,0,3.021,1.354,3.021,3.021S192.748,354.298,191.079,354.298z"/>
					<path fill="#00A3FB" d="M191.079,383.843h-20.596c-1.669,0-3.021-1.354-3.021-3.021s1.352-3.022,3.021-3.022h20.596
						c1.668,0,3.021,1.354,3.021,3.022S192.748,383.843,191.079,383.843z"/>
					<path fill="none" stroke="#00A3FB" stroke-width="4.9556" stroke-linecap="round" stroke-miterlimit="10" d="M357.395,351.275"
						/>
					<path fill="none" stroke="#00A3FB" stroke-width="4.9556" stroke-linecap="round" stroke-miterlimit="10" d="M336.798,351.275"
						/>
					<path fill="#FFFFFF" d="M357.396,354.298H240.511c-1.668,0-3.021-1.354-3.021-3.021c0-1.667,1.353-3.021,3.021-3.021h116.885
						c1.668,0,3.021,1.354,3.021,3.021S359.062,354.298,357.396,354.298z"/>
					<path fill="#FB9F00" d="M226.093,354.298h-20.596c-1.669,0-3.021-1.354-3.021-3.021c0-1.667,1.352-3.021,3.021-3.021h20.596
						c1.668,0,3.021,1.354,3.021,3.021C229.114,352.943,227.762,354.298,226.093,354.298z"/>
					<path fill="none" stroke="#FFFFFF" stroke-width="4.9556" stroke-linecap="round" stroke-miterlimit="10" d="M357.395,351.275"
						/>
					<path fill="none" stroke="#FFFFFF" stroke-width="4.9556" stroke-linecap="round" stroke-miterlimit="10" d="M240.51,351.275"
						/>
					<path fill="#FFFFFF" d="M324.44,369.07H170.483c-1.669,0-3.021-1.354-3.021-3.021c0-1.668,1.352-3.021,3.021-3.021H324.44
						c1.668,0,3.021,1.354,3.021,3.021C327.461,367.716,326.109,369.07,324.44,369.07z"/>
				</g>
				<path fill="#FFFFFF" d="M358.596,413.389h-146.92c-1.669,0-3.021-1.354-3.021-3.021c0-1.668,1.352-3.022,3.021-3.022h146.92
					c1.668,0,3.021,1.354,3.021,3.022C361.617,412.034,360.264,413.389,358.596,413.389z"/>
				<path fill="#FFFFFF" d="M358.596,428.161h-146.92c-1.669,0-3.021-1.354-3.021-3.021c0-1.668,1.352-3.021,3.021-3.021h146.92
					c1.668,0,3.021,1.354,3.021,3.021C361.617,426.807,360.264,428.161,358.596,428.161z"/>
			</g>
			<g>
				<polygon fill="#FFD480" points="408.447,461.913 269.351,461.913 306.039,280.49 371.759,280.49 				"/>
				<polygon fill="#FFB366" points="369.74,461.913 308.058,461.913 323.246,280.49 354.552,280.49 				"/>
			</g>
			<g>
				<g>
					<defs>
						<rect id="SVGID_1_" x="90.047" y="169.083" width="497.703" height="311.382"/>
					</defs>
					<clipPath id="SVGID_2_">
						<use xlink:href="#SVGID_1_"  overflow="visible"/>
					</clipPath>
					<g clip-path="url(#SVGID_2_)">
						<g>
							<circle fill="#FFFFFF" cx="318.247" cy="370.895" r="38.693"/>
							<circle fill="#FFFFFF" cx="255.106" cy="401.545" r="36.979"/>
							<circle fill="#FFFFFF" cx="376.305" cy="394.438" r="36.979"/>
							<circle fill="#FFFFFF" cx="190.634" cy="427.943" r="42.055"/>
							<circle fill="#FFFFFF" cx="436.119" cy="431.416" r="42.055"/>
							<circle fill="#FFFFFF" cx="121.593" cy="462.98" r="42.055"/>
							<circle fill="#FFFFFF" cx="556.205" cy="462.98" r="42.055"/>
							<circle fill="#FFFFFF" cx="483.769" cy="451.643" r="42.055"/>
						</g>
						<polygon fill="#FFFFFF" points="121.593,509.628 558.098,509.628 558.098,473.472 325.7,370.895 121.593,460.006 						"/>
					</g>
				</g>
				<g>
					<defs>
						<rect id="SVGID_3_" x="90.047" y="169.083" width="497.703" height="311.382"/>
					</defs>
					<clipPath id="SVGID_4_">
						<use xlink:href="#SVGID_3_"  overflow="visible"/>
					</clipPath>
					<g clip-path="url(#SVGID_4_)">
						<g>
							<circle fill="#E4E7EC" cx="322.146" cy="440.715" r="33.742"/>
							<circle fill="#E4E7EC" cx="270.383" cy="461.16" r="28.175"/>
							<circle fill="#E4E7EC" cx="421.224" cy="468.89" r="28.175"/>
							<circle fill="#E4E7EC" cx="220.615" cy="489.739" r="33.742"/>
							<circle fill="#E4E7EC" cx="472.92" cy="494.902" r="33.742"/>
							<circle fill="#E4E7EC" cx="372.092" cy="457.367" r="30.545"/>
						</g>
						<polygon fill="#E4E7EC" points="215.539,512.802 472.92,516.355 408.447,461.16 309.117,442.746 211.985,487.912 						"/>
					</g>
				</g>
			</g>
			<g>
				<g>
					<path fill="#181818" d="M580.838,154.151H92.667c-10.833,0-19.697,8.864-19.697,19.697v321.546h527.565V173.849
						C600.534,163.015,591.671,154.151,580.838,154.151z M575.755,470.616H97.749V178.931h478.006V470.616z"/>
					<rect x="11.752" y="495.396" fill="#E6E6E6" width="650" height="17.817"/>
					<path fill="#B3B3B3" d="M623.329,522.172H50.174c-8.958,0-17.917-1.593-26.378-4.578l-12.044-4.279h650l-12.144,4.38
						C641.146,520.679,632.288,522.172,623.329,522.172z"/>
				</g>
				<path fill="#B3B3B6" d="M290.897,504.305h54.026v-8.908h-58.549v4.386C286.374,502.279,288.399,504.305,290.897,504.305z"/>
				<path fill="#B3B3B6" d="M398.949,504.305h-54.026v-8.908h58.549v4.386C403.472,502.279,401.447,504.305,398.949,504.305z"/>
			</g>
			<g>
				<g>
					<path fill="#FFFFFF" d="M338.903,36.268c0,0-47.764,34.126-47.764,149.029c0,35.066,15.197,82.029,15.197,82.029h32.566
						L338.903,36.268L338.903,36.268z"/>
					<path fill="#FFFFFF" d="M338.903,36.268c0,0,47.764,34.126,47.764,149.029c0,35.066-15.196,82.029-15.196,82.029h-32.567
						L338.903,36.268L338.903,36.268z"/>
				</g>
				<g>
					<path fill="#009949" d="M385.952,159.191c26.761,29.284,45.441,66.647,45.441,66.647s-3.029,55.54-19.69,87.854l-41.402-77.251
						L385.952,159.191z"/>
					<path fill="#009949" d="M291.941,159.191c-26.76,29.284-45.441,66.647-45.441,66.647s3.029,55.54,19.691,87.854l41.402-77.251
						L291.941,159.191z"/>
					<path fill="#F16622" d="M338.897,7.383c0,0-59.242,36.69-59.242,160.224c0,37.699,18.85,88.19,18.85,88.19h40.392h40.393
						c0,0,18.85-50.491,18.85-88.19C398.14,44.073,338.897,7.383,338.897,7.383z"/>
					<g>
						<circle fill="#E4E7EC" cx="338.898" cy="106.681" r="27.935"/>
						<path fill="#009949" d="M338.897,141.062c-18.958,0-34.381-15.424-34.381-34.381c0-18.958,15.424-34.381,34.381-34.381
							c18.958,0,34.38,15.423,34.38,34.381S357.855,141.062,338.897,141.062z M338.897,85.192c-11.849,0-21.488,9.64-21.488,21.489
							c0,11.849,9.639,21.488,21.488,21.488c11.848,0,21.488-9.64,21.488-21.488C360.386,94.832,350.745,85.192,338.897,85.192z"/>
					</g>
					<path fill="#009949" d="M338.897,177.368c-8.762,6.605-13.384,17.346-12.158,28.25l12.158,110.995l12.158-110.995
						C352.282,194.714,347.66,183.973,338.897,177.368z"/>
				</g>
			</g>
			<g>
				<g>
					<path fill="#B3B3B3" d="M336.752,495.396h-58.549v3.395c0,3.046,2.469,5.515,5.515,5.515h53.034h53.034
						c3.046,0,5.515-2.469,5.515-5.515v-3.395H336.752z"/>
				</g>
			</g>
			<g>
				<g>
					<g>
						<circle fill="#FFFFFF" cx="536.25" cy="393.566" r="10.369"/>
						<circle fill="#FFFFFF" cx="528.463" cy="400.354" r="6.724"/>
					</g>
					<g>
						<circle fill="#FFFFFF" cx="431.046" cy="354.078" r="5.005"/>
						<circle fill="#FFFFFF" cx="428.395" cy="358.301" r="3.246"/>
					</g>
					<g>
						<circle fill="#E4E7EC" cx="480.226" cy="376.838" r="5.006"/>
						<circle fill="#E4E7EC" cx="475.346" cy="377.865" r="3.246"/>
					</g>
					<g>
						<circle fill="#E4E7EC" cx="554.046" cy="334.985" r="3.446"/>
						<circle fill="#E4E7EC" cx="552.757" cy="338.166" r="2.234"/>
					</g>
					<g>
						<circle fill="#FFFFFF" cx="518.431" cy="359.768" r="5.006"/>
						<circle fill="#FFFFFF" cx="515.18" cy="363.548" r="3.246"/>
					</g>
					<circle fill="#FFFFFF" cx="403.931" cy="332.028" r="2.162"/>
					<circle fill="#FFFFFF" cx="459.904" cy="355.704" r="2.162"/>
					<circle fill="#FFFFFF" cx="563.14" cy="367.897" r="2.162"/>
				</g>
				<g>
					<g>
						<circle fill="#FFFFFF" cx="137.253" cy="393.566" r="10.369"/>
						<circle fill="#FFFFFF" cx="145.041" cy="400.354" r="6.724"/>
					</g>
					<g>
						<circle fill="#FFFFFF" cx="242.457" cy="354.078" r="5.006"/>
						<circle fill="#FFFFFF" cx="245.109" cy="358.301" r="3.246"/>
					</g>
					<g>
						<circle fill="#E4E7EC" cx="193.278" cy="376.838" r="5.005"/>
						<circle fill="#E4E7EC" cx="198.158" cy="377.865" r="3.246"/>
					</g>
					<g>
						<circle fill="#E4E7EC" cx="119.458" cy="334.985" r="3.446"/>
						<circle fill="#E4E7EC" cx="120.748" cy="338.166" r="2.234"/>
					</g>
					<g>
						<circle fill="#FFFFFF" cx="155.073" cy="359.768" r="5.006"/>
						<circle fill="#FFFFFF" cx="158.324" cy="363.548" r="3.246"/>
					</g>
					<circle fill="#FFFFFF" cx="269.572" cy="332.028" r="2.162"/>
					<circle fill="#FFFFFF" cx="213.6" cy="355.704" r="2.162"/>
					<circle fill="#FFFFFF" cx="110.364" cy="367.897" r="2.162"/>
				</g>
			</g>
		</g>
	</g>
</g>
<path opacity="0.15" fill="#FFFFFF" d="M338.83,7.461l-0.32,306.311l-6.342-57.896h-33.73c0,0-18.783-52.938-18.83-83.546
	c-0.041-26.822-0.98-61.497,17.95-108.5C312.308,27.203,338.83,7.461,338.83,7.461z"/>
</svg>
